<?xml version="1.0" encoding="UTF-8"?>
<svg width="58px" height="47px" viewBox="0 0 58 47" version="1.1" xmlns="http://www.w3.org/2000/svg" xmlns:xlink="http://www.w3.org/1999/xlink">
    <!-- Generator: Sketch 53.2 (72643) - https://sketchapp.com -->
    <title>Group 6</title>
    <desc>Created with Sketch.</desc>
    <g id="Page-1" stroke="none" stroke-width="1" fill="none" fill-rule="evenodd">
        <g id="v" transform="translate(0.000000, -6.000000)" fill="#FFFFFF">
            <g id="Group-6" transform="translate(0.000000, 6.000000)">
                <circle id="Oval" opacity="0.186523438" cx="35.5" cy="23.5" r="23.5"></circle>
                <g id="Group-7">
                    <path d="M49.2930306,15.6053914 L45.9659855,19.0731997 L34.5412955,7.16514505 C34.3171865,6.93155421 34.1934393,6.62077684 34.1934393,6.28968721 C34.1934393,5.9596132 34.3171865,5.64883583 34.5412955,5.41473718 L37.028906,2.82187888 C37.2530151,2.58828804 37.5511776,2.45930528 37.8683406,2.45930528 C38.1855036,2.45930528 38.4836661,2.58828804 38.7077752,2.82187888 L49.2930306,13.8549835 C49.5176268,14.0885744 49.6408868,14.3993517 49.6408868,14.7299336 C49.6408868,15.0610232 49.5176268,15.3718006 49.2930306,15.6053914 L49.2930306,15.6053914 Z M39.1472238,26.1804549 L26.0485367,12.5275782 C25.8521976,12.3229323 25.5930106,12.1969964 25.3167719,12.1721139 L18.6183471,11.5617309 C18.5837563,11.5581762 18.5491656,11.5566528 18.5145748,11.5566528 C17.9581997,11.5566528 17.4705189,11.9659446 17.3584644,12.5443358 L16.8220642,15.3200043 C16.4859007,17.0546702 14.8596484,18.1814921 13.1939335,17.8321214 C12.3876281,17.6625142 11.69289,17.1760359 11.2378512,16.4620604 C10.7823252,15.7475771 10.6210641,14.8914159 10.7837868,14.0504889 L11.3211613,11.275836 C12.120646,7.14026255 15.9972455,4.4529523 19.9664117,5.28829345 C19.9742068,5.28981687 19.9829763,5.29134028 19.9912586,5.2923559 L31.4602832,7.4327589 L32.8726574,8.90488898 L44.2973474,20.8129437 L39.1472238,26.1804549 Z M18.8809444,41.4491708 C18.5481912,41.7965102 18.0049703,41.7960024 17.6722171,41.4491708 L17.0671226,40.8179677 C16.733395,40.4706283 16.733395,39.90544 17.0671226,39.5575928 L18.8059166,37.7452326 L20.6202256,39.6357949 L18.8809444,41.4491708 Z M13.5832012,37.1871536 C13.4214529,37.0190697 13.3327837,36.7951272 13.3327837,36.5574739 C13.3327837,36.3193128 13.4214529,36.0953703 13.5832012,35.9272865 L15.3224823,34.1139106 L17.1367913,36.0054886 L15.3975102,37.8178488 C15.0642697,38.1656961 14.5215361,38.1656961 14.1882956,37.8178488 L13.5832012,37.1871536 Z M10.1002541,33.5563395 C9.76652652,33.2090001 9.76652652,32.6438118 10.1002541,32.2959646 L11.8390481,30.4836043 L13.6538443,32.3741667 L11.9145631,34.1875425 C11.5813227,34.5343742 11.0381018,34.534882 10.7053486,34.1875425 L10.1002541,33.5563395 Z M6.6163327,29.9255254 C6.28309227,29.5781859 6.28309227,29.0124899 6.6163327,28.6651505 L8.35610105,26.8522824 L10.1699228,28.7433526 L8.43112886,30.5562206 C8.09740124,30.9040679 7.55515477,30.90356 7.22191434,30.5562206 L6.6163327,29.9255254 Z M50.962643,12.1157474 L40.3773877,1.08264275 C39.7070093,0.383901464 38.8164194,0 37.8688278,0 C36.9207491,0 36.029672,0.383901464 35.3597808,1.08264275 L32.8726574,3.67550105 C32.4897233,4.0741289 32.2168948,4.5438496 32.0458899,5.04251526 L20.407322,2.87113608 C20.4063476,2.87062828 20.4053732,2.87062828 20.4043988,2.87062828 C15.1714523,1.78798552 10.062253,5.333996 9.0069917,10.7893577 L8.47010435,13.5645184 C7.87670254,16.6296364 9.78698865,19.6256928 12.7276892,20.2436929 C15.6683898,20.8611852 18.542832,18.8705851 19.1362339,15.8059748 L19.463628,14.1083788 L24.682933,14.5836854 L38.3126612,28.7905786 L40.7827327,31.3651559 C41.2835678,31.8866728 41.2830806,32.7347091 40.7827327,33.256226 C40.2828721,33.7772352 39.4687716,33.777743 38.968911,33.256226 L32.3518475,26.3592026 C31.8909623,25.878818 31.1436073,25.878818 30.6827222,26.3592026 C30.221837,26.8395873 30.221837,27.6185619 30.6827222,28.0989466 L37.2997857,34.99597 C37.5419209,35.2488574 37.6754119,35.5845173 37.6754119,35.9415051 C37.6754119,36.2984928 37.5419209,36.6341527 37.2997857,36.8865323 C36.7989507,37.4085571 35.9858245,37.4080493 35.4854767,36.8865323 L28.8684132,29.9900167 C28.4075281,29.5096321 27.6601731,29.5096321 27.1992879,29.9900167 C26.7384028,30.4698936 26.7384028,31.249376 27.1992879,31.7297607 L33.8163514,38.6262763 C34.3166993,39.1472854 34.3166993,39.9958295 33.8163514,40.5178542 C33.573729,40.7702339 33.2516941,40.908865 32.909197,40.908865 C32.5666998,40.908865 32.2446649,40.7702339 32.0025297,40.5178542 L25.3854662,33.6208309 C24.9240938,33.1399384 24.1767388,33.1399384 23.7163409,33.6208309 C23.2554557,34.1012155 23.2554557,34.8796824 23.7163409,35.360067 L30.3334044,42.2570904 C30.833265,42.7786073 30.833265,43.6271514 30.3334044,44.1481606 C29.8335437,44.6691697 29.0194432,44.6696775 28.5186082,44.1481606 L5.10700692,19.7455351 L2.01478914,16.5235049 C1.55390399,16.0426125 0.806549006,16.0426125 0.34566386,16.5235049 C-0.115221287,17.0033818 -0.115221287,17.7823564 0.34566386,18.2627411 L3.43739445,21.485279 L6.80195346,24.9921884 L4.94769461,26.9254065 C4.34016419,27.5586408 4.00546219,28.4000756 4.00546219,29.2953379 C4.00546219,30.191108 4.339677,31.0325428 4.94769461,31.6652693 L5.55278907,32.2959646 C6.08383009,32.8494733 6.76784991,33.185641 7.50546102,33.2613041 C7.57805287,34.0296148 7.90008784,34.7430825 8.43112886,35.2955756 L9.03622331,35.9272865 C9.58090576,36.4955216 10.2751566,36.8159473 10.9879209,36.8895792 C11.0600255,37.6594133 11.3830349,38.372881 11.9140759,38.9268975 L12.5196576,39.5575928 C13.0502114,40.1111015 13.7347184,40.4467614 14.4718423,40.5224245 C14.5449214,41.291243 14.8669563,42.0042029 15.3979974,42.5577116 L16.0030918,43.1884069 C16.63011,43.8414456 17.45298,44.1684728 18.2768243,44.1684728 C19.1001815,44.1684728 19.9235387,43.8414456 20.5505569,43.1884069 L22.4053029,41.2556966 L26.8499701,45.8879045 C27.5383747,46.6054346 28.4533243,47 29.4262499,47 C30.3991755,47 31.3141251,46.6049268 32.0025297,45.8879045 C32.6543947,45.2084598 33.0241746,44.3157366 33.0621757,43.3615688 C33.9771253,43.3224677 34.8336117,42.936535 35.4854767,42.2570904 C36.1578039,41.5568257 36.5076089,40.6488682 36.5441484,39.7297391 C37.4259688,39.6916536 38.2975582,39.3270488 38.968911,38.6267841 C39.6407509,37.9265194 39.9905559,37.0180541 40.0270955,36.098925 C40.9094031,36.0608395 41.7805052,35.6962347 42.4523452,34.99597 C43.8730017,33.5152072 43.8730017,31.1056669 42.4523452,29.6254119 L40.8168363,27.9207066 L46.8010353,21.6833234 L50.962643,17.3456431 C52.3457857,15.9034736 52.3457857,13.5574091 50.962643,12.1157474 L50.962643,12.1157474 Z" id="Fill-1"></path>
                    <path d="M46.2475502,13.960396 C46.8834397,13.960396 47.3982301,14.4809695 47.3982301,15.1235223 C47.3982301,15.7660751 46.8834397,16.2871287 46.2475502,16.2871287 C45.6121355,16.2871287 45.0973451,15.7660751 45.0973451,15.1235223 C45.0973451,14.4809695 45.6121355,13.960396 46.2475502,13.960396" id="Fill-3"></path>
                    <path d="M25.1994516,15.0558609 L38.9323964,29.0558167 L41.4211736,31.5928928 C41.9253105,32.1063129 41.9248196,32.9424971 41.4211736,33.4564176 C40.9175276,33.9698377 40.0972619,33.9703382 39.593125,33.4564176 L32.9259511,26.6593558 C32.4620666,26.1864688 31.709052,26.1864688 31.2441857,26.6593558 C30.7803012,27.1332435 30.7803012,27.9008717 31.2441857,28.3737586 L37.9113596,35.1703201 C38.1558194,35.419524 38.2903214,35.7502947 38.2903214,36.1025829 C38.2903214,36.4543708 38.1558194,36.7851414 37.9113596,37.0338449 C37.4072227,37.5477655 36.587448,37.5472651 36.0838019,37.0338449 L29.4166281,30.2377839 C28.9522527,29.7643965 28.1987472,29.7643965 27.7348627,30.2377839 C27.2704873,30.7106709 27.2704873,31.478299 27.7348627,31.9521868 L34.4020365,38.7482478 C34.9056826,39.2616679 34.9056826,40.0978521 34.4020365,40.6117727 C34.1575768,40.8604762 33.8331031,40.9975884 33.4880123,40.9975884 C33.1429215,40.9975884 32.8184477,40.8604762 32.573988,40.6117727 L25.9068141,33.8152112 C25.4424387,33.3418239 24.6894241,33.3418239 24.2255396,33.8152112 C23.7606733,34.289099 23.7606733,35.0562267 24.2255396,35.5296141 L30.8927135,42.3261755 C31.3963595,42.8395956 31.3963595,43.6757799 30.8927135,44.1897004 C30.3885765,44.7031205 29.5683109,44.7036209 29.064174,44.1897004 L9.10388654,23.8420504 L5.47478799,20.1425232 L2.35964401,16.9669247 C1.89477774,16.4935373 1.14176311,16.4935373 0.677878608,16.9669247 C0.213503222,17.4403121 -0.27737985,18.2079402 0.186995536,18.6813276 L3.30213951,21.8569261 L6.69217801,25.3127539 L22.9040823,41.8392771 L27.3824086,45.9041033 C28.0760264,46.6111818 28.9979048,47 29.9781983,47 C30.9584918,47 31.8803702,46.6106814 32.573988,45.9041033 C33.2307895,45.2345554 33.6038607,44.3548355 33.6416587,43.4145661 C34.564028,43.3760346 35.4270004,42.9957234 36.0838019,42.3261755 C36.7612206,41.6361109 37.1136746,40.7413787 37.1504909,39.8356376 C38.0384983,39.7976065 38.9166882,39.4388129 39.593125,38.7487482 C40.2705437,38.0586835 40.6229977,37.163451 40.6598139,36.2577099 C41.5488032,36.2201791 42.4265021,35.8608851 43.1034299,35.1703201 C44.5348449,33.7111261 44.5348449,31.3371835 43.1034299,29.8784899 L41.4550445,28.1986153 L28.249799,14.7360993 L26.5753968,13.029703 L25.1994516,15.0558609 Z" id="Fill-5"></path>
                </g>
            </g>
        </g>
    </g>
</svg>